<svg width="32" height="32" viewBox="0 0 32 32" fill="none" xmlns="http://www.w3.org/2000/svg">
<path fill-rule="evenodd" clip-rule="evenodd" d="M16 0C24.8366 0 32 7.16344 32 16C32 24.8366 24.8366 32 16 32C7.16344 32 0 24.8366 0 16C0 7.16344 7.16344 0 16 0ZM11.0684 17.5C11.4173 21.7313 13.2265 25.5438 15.998 28.4395C18.7699 25.5435 20.5841 21.7318 20.9336 17.5H11.0684ZM3.08789 17.5C3.67777 22.6334 7.25655 26.8544 12.041 28.3828C9.7784 25.2891 8.34099 21.5536 8.05469 17.5H3.08789ZM23.9473 17.5C23.6607 21.5541 22.2197 25.2891 19.957 28.3828C24.7424 26.8549 28.3222 22.6341 28.9121 17.5H23.9473ZM15.998 3.55859C13.2259 6.45432 11.4174 10.2682 11.0684 14.5H20.9336C20.5843 10.2674 18.7713 6.45451 15.998 3.55859ZM19.9609 3.61523C22.2239 6.7091 23.6609 10.4461 23.9473 14.5H28.9121C28.3223 9.36701 24.7448 5.14395 19.9609 3.61523ZM12.041 3.61523C7.25627 5.14347 3.67779 9.36637 3.08789 14.5H8.05469C8.34103 10.4459 9.77786 6.70916 12.041 3.61523Z" fill="black"/>
</svg>
