<?xml version="1.0" encoding="UTF-8" standalone="no"?>
<!-- This Source Code Form is subject to the terms of the Mozilla Public
   - License, v. 2.0. If a copy of the MPL was not distributed with this
   - file, You can obtain one at http://mozilla.org/MPL/2.0/. -->

<svg
   xmlns:dc="http://purl.org/dc/elements/1.1/"
   xmlns:cc="http://creativecommons.org/ns#"
   xmlns:rdf="http://www.w3.org/1999/02/22-rdf-syntax-ns#"
   xmlns:svg="http://www.w3.org/2000/svg"
   xmlns="http://www.w3.org/2000/svg"
   xmlns:sodipodi="http://sodipodi.sourceforge.net/DTD/sodipodi-0.dtd"
   xmlns:inkscape="http://www.inkscape.org/namespaces/inkscape"
   width="16"
   height="16"
   viewBox="0 0 16 16"
   version="1.1"
   id="svg4"
   sodipodi:docname="tablist.svg"
   inkscape:version="0.92.4 (unknown)">
  <metadata
     id="metadata10">
    <rdf:RDF>
      <cc:Work
         rdf:about="">
        <dc:format>image/svg+xml</dc:format>
        <dc:type
           rdf:resource="http://purl.org/dc/dcmitype/StillImage" />
      </cc:Work>
    </rdf:RDF>
  </metadata>
  <defs
     id="defs8" />
  <sodipodi:namedview
     pagecolor="#ffffff"
     bordercolor="#666666"
     borderopacity="1"
     objecttolerance="10"
     gridtolerance="10"
     guidetolerance="10"
     inkscape:pageopacity="0"
     inkscape:pageshadow="2"
     inkscape:window-width="1366"
     inkscape:window-height="704"
     id="namedview6"
     showgrid="false"
     inkscape:zoom="29.5"
     inkscape:cx="8"
     inkscape:cy="8"
     inkscape:window-x="0"
     inkscape:window-y="27"
     inkscape:window-maximized="1"
     inkscape:current-layer="svg4" />
  <path
     d="M 8,12 7.9830508,9.1016949 C 7.9798211,8.5494197 8.3629692,8 8.9152542,8 H 13 c 0.552285,0 1.033898,-0.016949 1.033898,-0.016949 L 14,5 C 13.987449,3.8955019 13.104569,3 12,3 H 4 C 2.8954305,3 2,3.8954305 2,5 v 6 H 1 c -1.33333275,0 -1.33333275,2 0,2 h 7 v -1 c 0,-0.552285 -0.665378,0.09505 -0.1186441,0.01695 z m 7.5,0 -2.533897,0.415256 L 15.5,12 C 15.46046,11.9921 8.5785754,12.08688 9.4237307,12.07627 L 15.5,12 h -6 c -0.6666664,0 -0.6666664,1 0,1 H 12 l 1.050847,-0.0085 c 0.666645,-0.0054 -1.733884,-0.06165 -1.067796,-0.0339 L 13,13 h 2.5 c 0.666666,0 0.666666,-1 0,-1 z"
     id="path2"
     style="fill:none"
     inkscape:connector-curvature="0"
     sodipodi:nodetypes="cssscsssscsscsscsccscsscsscss" />
  <rect
     style="fill:none"
     id="rect14"
     width="7.1525426"
     height="1.9322034"
     x="8.8474579"
     y="11.084745" />
  <rect
     style="fill:none"
     id="rect14-3"
     width="7.1525426"
     height="1.9322034"
     x="8.9322033"
     y="8.5593214" />
</svg>
